<?xml version="1.0" standalone="no"?>
<!DOCTYPE svg PUBLIC "-//W3C//DTD SVG 20010904//EN"
 "http://www.w3.org/TR/2001/REC-SVG-20010904/DTD/svg10.dtd">
<svg version="1.0" xmlns="http://www.w3.org/2000/svg"
 width="260.000000pt" height="260.000000pt" viewBox="0 0 260.000000 260.000000"
 preserveAspectRatio="xMidYMid meet">
<metadata>
Created by potrace 1.11, written by Peter Selinger 2001-2013
</metadata>
<g transform="translate(0.000000,260.000000) scale(0.100000,-0.100000)"
fill="#000000" stroke="none">
<path d="M1146 2523 c-197 -34 -362 -119 -508 -261 -287 -279 -373 -704 -217
-1078 85 -204 269 -398 468 -494 46 -23 120 -51 141 -55 3 -1 14 -4 25 -8 11
-3 34 -9 50 -12 17 -3 46 -8 65 -12 57 -11 250 -7 314 7 453 95 767 467 781
925 9 282 -89 529 -288 727 -109 108 -310 222 -427 243 -18 3 -36 7 -39 9 -34
21 -263 27 -365 9z m389 -62 c108 -28 249 -99 337 -170 111 -89 175 -166 243
-293 138 -260 143 -584 12 -843 -122 -244 -335 -417 -599 -487 -120 -32 -323
-31 -448 1 -252 64 -470 242 -590 479 -65 130 -92 236 -96 387 -6 214 40 378
150 543 135 202 348 346 586 396 97 20 305 14 405 -13z"/>
<path d="M1220 2457 c-3 -2 -30 -7 -60 -10 -105 -12 -248 -70 -360 -148 -166
-114 -297 -303 -352 -506 -31 -117 -32 -336 0 -451 70 -256 237 -462 471 -581
52 -27 180 -69 239 -78 59 -9 245 -9 292 0 19 4 48 9 63 12 38 7 143 47 198
75 80 41 154 97 237 180 74 73 89 96 142 204 76 157 102 261 101 411 -1 99 -6
139 -31 238 -21 79 -91 234 -126 277 -11 12 -36 43 -58 69 -126 151 -304 257
-501 297 -40 8 -249 17 -255 11z m130 -197 l0 -170 -360 1 -360 1 29 37 c16
20 38 44 49 55 20 18 22 18 49 -2 132 -92 304 0 304 163 l0 53 37 7 c20 4 51
9 67 12 17 3 31 6 32 7 1 1 36 3 77 4 l76 3 0 -171z m445 14 c53 -35 185 -165
179 -176 -3 -4 -56 -8 -118 -8 l-112 0 -1 105 c0 58 2 105 6 105 3 0 24 -12
46 -26z m-524 -320 c18 -11 41 -32 53 -47 20 -27 21 -42 26 -370 5 -326 6
-344 27 -382 62 -116 201 -178 423 -191 58 -4 106 -8 108 -9 11 -10 -147 -123
-223 -161 -132 -65 -224 -86 -375 -87 -199 -2 -359 51 -516 169 -120 91 -135
84 185 84 l281 0 0 75 c0 71 -1 75 -22 75 -39 1 -104 36 -129 71 l-24 34 -1
375 c-1 206 0 378 2 381 8 15 154 1 185 -17z m792 16 c3 -3 16 -32 30 -65 100
-238 90 -512 -26 -730 l-32 -60 -85 -2 c-113 -2 -163 18 -190 79 -17 40 -18
73 -18 408 0 201 2 368 4 371 4 7 311 6 317 -1z m-1443 -20 c73 -37 74 -45 76
-392 1 -337 -2 -363 -56 -410 -47 -43 -65 -37 -98 30 -29 56 -58 135 -68 183
-16 78 -19 116 -18 224 0 129 19 217 68 329 28 62 37 66 96 36z"/>
<path d="M1643 487 c-75 -40 -114 -117 -108 -213 8 -119 78 -199 186 -211 123
-15 213 76 218 218 5 128 -79 224 -197 227 -42 1 -68 -4 -99 -21z m146 -58
c67 -62 78 -208 22 -271 -51 -57 -128 -40 -162 37 -26 58 -27 142 -3 191 31
63 99 83 143 43z"/>
<path d="M707 288 l2 -213 105 2 c158 3 216 35 230 126 8 53 -14 100 -63 132
-36 24 -40 31 -39 67 0 31 -6 46 -26 67 -24 24 -35 26 -119 29 l-92 4 2 -214z
m131 146 c26 -7 31 -48 6 -58 -39 -15 -54 -7 -54 29 0 36 6 40 48 29z m72
-139 c34 -17 50 -43 50 -78 0 -44 -29 -66 -97 -75 -35 -5 -65 -6 -68 -4 -3 3
-5 43 -5 89 l0 83 45 0 c26 0 59 -7 75 -15z"/>
<path d="M1249 313 c2 -111 -1 -188 -7 -196 -19 -24 1 -42 46 -42 l43 0 2 211
2 212 -45 -1 -45 0 4 -184z"/>
</g>
</svg>
