<svg xmlns="http://www.w3.org/2000/svg" xmlns:xlink="http://www.w3.org/1999/xlink" version="1.1" id="Layer_1" x="0px" y="0px" width="126.333px" height="160.833px" viewBox="0 0 126.333 160.833" enable-background="new 0 0 126.333 160.833" xml:space="preserve">
<g>
	<g>
		<path fill="none" stroke="#FFFFFF" stroke-width="2" d="M67.033,6.318C65.765,6.233,64.49,6.175,63.2,6.175    c-6.136,0-12.04,0.981-17.578,2.775c0.458,1.249,0.72,2.592,0.72,4c0,6.429-5.211,11.64-11.639,11.64    c-3.645,0-6.895-1.677-9.029-4.299c-3.313,2.902-6.285,6.18-8.853,9.77h50.212V6.318z M90.744,13.27v16.79h18.835    C104.642,23.157,98.209,17.399,90.744,13.27z M113.042,35.521H90.744v46.557c0,0-1.151,11.496,11.495,11.496h9.169    c5.561-8.801,8.792-19.22,8.792-30.399C120.2,53.138,117.597,43.713,113.042,35.521z M67.033,82.078c0,0,0-23.278,0-34.917    c0-11.64-11.639-11.64-11.639-11.64h-7.759v46.557c0,11.64,11.639,11.64,11.639,11.64v7.687H20.924    c10.43,11.527,25.506,18.771,42.276,18.771c16.77,0,31.846-7.244,42.275-18.771h-3.236    C102.239,101.404,67.033,103.431,67.033,82.078z M24.357,47.161c0-10.017-8.614-11.412-11.018-11.607    C8.796,43.738,6.2,53.151,6.2,63.175c0,11.17,3.225,21.581,8.777,30.376c9.374-1.403,9.379-11.474,9.379-11.474    S24.357,58.8,24.357,47.161z"/>
	</g>
</g>
<circle fill="none" stroke="#FFFFFF" stroke-width="3" cx="63.2" cy="63.175" r="61.5"/>
<path fill-rule="evenodd" clip-rule="evenodd" fill="#FFFFFF" d="M92.679,160.666c-0.94,0.068-1.565,0.084-2.55,0  c-4.981-0.677-8.049-3.342-9.882-6.375c-2.17-3.591-2.86-8.814-1.488-13.283c1.243-4.048,3.841-7.016,7.651-8.5  c4.237-1.651,9.342-0.969,12.751,1.594c3.756,2.824,6.165,7.802,5.419,14.345C103.747,155.759,99.146,160.125,92.679,160.666z   M88.854,156.097c1.639,0.892,3.857,0.946,5.419,0.212c6.725-3.157,5.017-17.219-0.319-20.189c-0.847-0.472-2.307-0.811-3.613-0.638  C82,136.59,82.603,152.697,88.854,156.097z"/>
<path fill-rule="evenodd" clip-rule="evenodd" fill="#FFFFFF" d="M23.717,132.375c0,0,4.331-0.062,6.085-0.065  c1.933-0.004,3.616,0.098,5.179,0.41c3.447,0.688,5.704,4.879,3.825,8.607c4.175,1.63,7.893,4.189,7.332,9.988  c-0.665,6.868-6.719,8.257-14.18,8.477c-2.598,0.076-8.241,0.024-8.241,0.024s-0.029-2.118,0.05-2.394  c0.063-0.219,0.481-1.006,0.481-1.006v-20.402c0,0-0.384-0.92-0.462-1.217C23.661,134.438,23.717,132.375,23.717,132.375z   M32.521,140.5c1-0.172,1.805-1.042,1.61-2.467c-0.134-0.979-0.77-1.47-1.706-1.692c-0.498-0.106-1.482-0.122-2.969-0.114  c0,1.453,0,2.905,0,4.357C31.114,140.609,32.121,140.569,32.521,140.5z M29.364,144.406l-0.016,11.372c0,0,2.813,0.048,4.109-0.02  c3.112-0.165,5.661-0.821,6.623-2.955c1.68-3.724-0.279-6.382-3.409-7.686c-1.458-0.606-3.153-0.721-4.87-0.711  C31.054,144.411,29.364,144.406,29.364,144.406z"/>
<path fill-rule="evenodd" clip-rule="evenodd" fill="#FFFFFF" d="M65.371,132.507c0,0,0.087,1.774-0.1,2.086  c-0.297,0.495-0.644,0.995-0.644,0.995v21.252c0,0,0.416,0.674,0.609,1.066c0.157,0.375,0.135,1.91,0.135,1.91h-6.694  c0,0-0.031-1.628,0.094-1.91c0.173-0.39,0.649-1.065,0.649-1.065v-21.252c0,0-0.493-0.651-0.618-0.995  c-0.031-0.219-0.02-2.086-0.02-2.086H65.371z"/>
</svg>
